<?xml version="1.0" encoding="utf-8"?>
<!-- Svg Vector Icons : http://www.onlinewebfonts.com/icon -->
<!DOCTYPE svg PUBLIC "-//W3C//DTD SVG 1.1//EN" "http://www.w3.org/Graphics/SVG/1.1/DTD/svg11.dtd">
<svg version="1.1" xmlns="http://www.w3.org/2000/svg" xmlns:xlink="http://www.w3.org/1999/xlink" x="0px" y="0px" viewBox="0 0 1000 1000" enable-background="new 0 0 1000 1000" xml:space="preserve">
<metadata> Svg Vector Icons : http://www.onlinewebfonts.com/icon </metadata>
<g><g><g><g><path d="M500,10C229.8,10,10,229.8,10,500c0,270.2,219.8,490,490,490c270.2,0,490-219.8,490-490C990,229.8,770.2,10,500,10z M534.8,835c-45.4,0-82.4-36.9-82.4-82.4c0-45.4,36.9-82.3,82.4-82.3c45.4,0,82.3,36.9,82.3,82.3C617.2,798.1,580.2,835,534.8,835z M500,488.7h-2.8v1.7c-133.3,1.5-241.3,112.8-241.3,249.4c0,87.7,44.3,167.3,117,212.6C170,895.6,30.1,712.5,30.1,500c0-259.1,210.8-469.9,470-469.9c123.6,0,224.1,102.9,224.1,229.3C724.1,385.8,623.6,488.7,500,488.7z"/></g><g><path d="M534.8,174.9c-45.4,0-82.4,36.9-82.4,82.4c0,45.4,36.9,82.3,82.4,82.3c45.4,0,82.3-36.9,82.3-82.3C617.2,211.9,580.2,174.9,534.8,174.9z"/></g></g></g><g></g><g></g><g></g><g></g><g></g><g></g><g></g><g></g><g></g><g></g><g></g><g></g><g></g><g></g><g></g></g>
</svg>